<svg width="101" height="100" viewBox="0 0 101 100" fill="none" xmlns="http://www.w3.org/2000/svg">
<path d="M50.1338 2.5C76.4476 2.5 97.7676 23.7728 97.7676 50C97.7676 76.2272 76.4476 97.5 50.1338 97.5C23.8201 97.4999 2.5 76.2272 2.5 50C2.5 23.7728 23.8201 2.50008 50.1338 2.5Z" fill="#90E0EF" stroke="#1E4E8C" stroke-width="5"/>
<mask id="mask0_148_87" style="mask-type:luminance" maskUnits="userSpaceOnUse" x="29" y="30" width="43" height="44">
<path d="M29 30.8879H71.2186V73.4594H29V30.8879Z" fill="white"/>
</mask>
<g mask="url(#mask0_148_87)">
<path d="M67.3648 31.1147H64.7007V34.5597C64.7007 36.4112 63.2984 37.9538 61.6153 37.9538H61.4277C59.7456 37.9538 58.3423 36.4112 58.3423 34.5597V31.1147H41.5602V34.5597C41.5602 36.4112 40.1579 37.9538 38.4748 37.9538H38.2882C36.6051 37.9538 35.2028 36.4112 35.2028 34.5597V31.1147H32.8656C30.7612 31.1147 29.0791 32.9663 29.0791 35.2802V69.3231C29.0791 71.6381 30.7612 73.4885 32.8656 73.4885H62.7367L63.158 73.3859C63.2513 73.3351 63.3917 73.2314 63.485 73.1288L70.4503 65.055C70.4503 65.055 70.4503 65.0043 70.4974 65.0043C70.9177 64.5408 71.1514 63.8722 71.1514 63.2035V35.2802C71.1514 32.9663 69.4683 31.1147 67.3648 31.1147ZM69.0008 63.5643L62.5973 70.9175V65.364C62.5973 64.2837 63.3917 63.4098 64.3737 63.4098H69.0951C69.048 63.4606 69.0008 63.5124 69.0008 63.5643ZM69.1413 61.1985H64.3737C62.2693 61.1985 60.5872 63.0501 60.5872 65.364V71.2265H32.8656C31.8837 71.2265 31.0892 70.3526 31.0892 69.2723V42.7371H69.0951V61.1985H69.1413Z" fill="white"/>
</g>
<mask id="mask1_148_87" style="mask-type:luminance" maskUnits="userSpaceOnUse" x="36" y="27" width="5" height="10">
<path d="M36.29 27H40.3123V36.6952H36.29V27Z" fill="white"/>
</mask>
<g mask="url(#mask1_148_87)">
<path d="M38.4747 36.463C39.4567 36.463 40.2511 35.589 40.2511 34.5088V28.9542C40.2511 27.875 39.4567 27 38.4747 27H38.2881C37.3061 27 36.5117 27.875 36.5117 28.9542V34.5088C36.5117 35.589 37.3061 36.463 38.2881 36.463H38.4747Z" fill="white"/>
</g>
<mask id="mask2_148_87" style="mask-type:luminance" maskUnits="userSpaceOnUse" x="59" y="27" width="5" height="10">
<path d="M59.418 27H63.4402V36.6952H59.418V27Z" fill="white"/>
</mask>
<g mask="url(#mask2_148_87)">
<path d="M61.6153 36.463C62.5973 36.463 63.3918 35.589 63.3918 34.5088V28.9542C63.3918 27.875 62.5973 27 61.6153 27H61.4278C60.4468 27 59.6514 27.875 59.6514 28.9542V34.5088C59.6514 35.589 60.4468 36.463 61.4278 36.463H61.6153Z" fill="white"/>
</g>
<path d="M36.3242 47.3647H39.8771V51.2731H36.3242V47.3647Z" fill="white"/>
<path d="M44.3662 47.3647H47.919V51.2731H44.3662V47.3647Z" fill="white"/>
<path d="M52.4062 47.3647H55.9591V51.2731H52.4062V47.3647Z" fill="white"/>
<path d="M60.4004 47.3647H63.9532V51.2731H60.4004V47.3647Z" fill="white"/>
<path d="M36.3242 54.8726H39.8771V58.7809H36.3242V54.8726Z" fill="white"/>
<path d="M44.3662 54.8726H47.919V58.7809H44.3662V54.8726Z" fill="white"/>
<path d="M52.4062 54.8726H55.9591V58.7809H52.4062V54.8726Z" fill="white"/>
<path d="M60.4004 54.8726H63.9532V58.7809H60.4004V54.8726Z" fill="white"/>
<path d="M36.3242 62.4321H39.8771V66.3405H36.3242V62.4321Z" fill="white"/>
<path d="M44.3662 62.4321H47.919V66.3405H44.3662V62.4321Z" fill="white"/>
<path d="M52.4062 62.4321H55.9591V66.3405H52.4062V62.4321Z" fill="white"/>
</svg>
