<svg width="432" height="432" viewBox="0 0 432 432" fill="none" xmlns="http://www.w3.org/2000/svg">
<path fill-rule="evenodd" clip-rule="evenodd" d="M216 0L252.625 18.849L292.599 13.5156L318.792 42.974L357.443 50.8021L371.766 86.8958L405.557 106.979L406.922 146.073L432 177.193L419.661 216L432 254.812L406.922 285.927L405.557 325.021L371.766 345.104L357.443 381.198L318.792 389.031L292.599 418.484L252.625 413.156L216 432L179.375 413.156L139.401 418.484L113.208 389.031L74.5521 381.198L60.2344 345.104L26.4375 325.021L25.0781 285.927L0 254.812L12.3333 216L0 177.193L25.0781 146.073L26.4375 106.979L60.2344 86.8958L74.5521 50.8021L113.208 42.974L139.401 13.5156L179.375 18.849L216 0Z" fill="#90E0EF"/>
<path d="M325.297 90.6927L324.401 90.5208C319.813 92.7656 289.229 106.073 287.844 107.635C287.766 108.385 287.719 108.505 288.214 109.13C290.578 112.109 299.13 117.297 302.677 119.63C297.781 125.37 293.24 131.318 288.521 137.188C275.464 153.411 262.5 169.958 248.75 185.583C245.078 184.307 241.786 184.042 238.188 185.849C237.198 186.354 236.292 186.99 235.484 187.76C228.87 183.62 222.516 179.078 215.953 174.859C217.526 171.635 218.708 168 217.406 164.469C216.88 163.177 216.125 162.031 215.135 161.042C214.151 160.057 213.01 159.297 211.719 158.766C211.37 158.62 211.021 158.495 210.672 158.38C210.313 158.271 209.953 158.177 209.589 158.104C208.479 157.875 207.37 157.818 206.245 157.932C205.875 157.969 205.505 158.026 205.141 158.099C204.411 158.24 203.698 158.453 203.01 158.734C202.688 158.87 202.375 159.016 202.063 159.182C201.755 159.349 201.458 159.526 201.167 159.724C200.875 159.922 200.594 160.135 200.328 160.365C200.057 160.583 199.802 160.818 199.552 161.063C199.307 161.313 199.078 161.573 198.854 161.844C198.63 162.109 198.427 162.396 198.214 162.682C198.005 162.969 197.844 163.276 197.677 163.589C197.516 163.901 197.375 164.229 197.24 164.542C196.698 166 196.464 167.51 196.531 169.073C196.594 170.63 196.958 172.115 197.62 173.526C198.052 174.443 198.557 175.318 199.125 176.151C196.359 181.474 192.646 186.417 189.427 191.458C182.948 201.729 176.37 211.932 169.688 222.073C166.75 226.536 163.536 230.896 160.672 235.417C159.333 234.802 157.922 234.479 156.448 234.464C154.974 234.443 153.557 234.724 152.203 235.313C150.813 235.906 149.604 236.76 148.578 237.875C147.552 238.984 146.802 240.255 146.318 241.688C145.76 243.469 145.49 245.286 145.505 247.151C136.089 249.505 126.292 250.563 116.932 253.016C114.219 257.891 110.505 262.427 107.26 266.974C99.0469 278.646 90.4323 289.99 82.0886 301.469C79.3907 305.193 76.0417 308.917 73.7969 312.885C73.2032 313.911 72.7969 314.641 73.0729 315.828C73.849 316.161 74.0521 316.047 74.8959 315.896C75.3594 315.5 75.7865 315.063 76.1719 314.589C85.6563 301.891 95.0573 289.141 104.37 276.323C109.318 269.474 114.052 262.464 119.042 255.672C128.193 253.688 137.495 252.135 146.708 250.458C148.771 253.333 151.052 255.771 154.76 256.307C156.115 256.469 157.448 256.365 158.76 255.99C160.073 255.609 161.26 254.99 162.323 254.13L162.771 253.771C162.911 253.651 163.057 253.526 163.193 253.396C163.323 253.271 163.469 253.135 163.599 252.995C163.724 252.854 163.859 252.719 163.99 252.573C164.115 252.427 164.234 252.286 164.349 252.141C164.464 251.995 164.578 251.833 164.698 251.682C164.813 251.526 164.911 251.37 165.016 251.208C165.115 251.052 165.214 250.885 165.307 250.719C165.401 250.552 165.495 250.385 165.573 250.214C165.656 250.042 165.74 249.875 165.818 249.698C165.896 249.521 165.964 249.349 166.036 249.167C166.104 248.99 166.167 248.813 166.224 248.63C166.281 248.453 166.333 248.271 166.385 248.083C166.438 247.901 166.479 247.719 166.521 247.531C166.557 247.339 166.594 247.161 166.63 246.969C166.661 246.776 166.688 246.594 166.703 246.406C167.089 242.656 165.536 239.604 163.182 236.839C167.74 231.583 171.234 225.047 175.052 219.224C183.979 205.599 192.693 191.76 201.932 178.339C206.141 179.979 208.698 179.458 212.776 177.667C213.073 177.536 213.37 177.401 213.661 177.26C220.521 181.276 227.141 185.656 233.521 190.396C232.297 193.651 231.922 197.115 233.458 200.38C233.776 201.005 234.156 201.594 234.594 202.141C235.036 202.688 235.521 203.188 236.063 203.641C236.599 204.094 237.177 204.484 237.792 204.823C238.406 205.156 239.052 205.432 239.724 205.641C240.396 205.844 241.078 205.984 241.776 206.057C242.474 206.13 243.172 206.13 243.875 206.063C244.573 205.995 245.255 205.859 245.927 205.651C246.599 205.448 247.245 205.177 247.865 204.844C249.245 204.161 250.432 203.229 251.427 202.057C252.427 200.88 253.151 199.557 253.604 198.083C254.328 195.349 253.974 191.677 252.464 189.245C252.099 188.661 251.677 188.109 251.26 187.563C255.005 183.479 258.276 178.979 261.849 174.74C272.693 161.844 283.229 148.651 293.807 135.552C297.526 130.948 301.083 126.172 304.911 121.656C307.542 123.474 319.37 132.552 321.49 132.453C321.984 132.021 322.307 131.484 322.464 130.849C322.927 128.646 322.938 126.115 323.135 123.833L324.51 108.526C324.984 103.422 326.167 97.9219 326.177 92.8594C326.229 92.4427 326.177 92.0469 326.021 91.6615C325.865 91.2761 325.625 90.9531 325.297 90.6927ZM358.198 337.938C355.125 336.359 346.083 337.401 342.255 337.344C342.932 301.63 342.286 265.917 342.391 230.203L342.24 177.839C342.24 168.609 342.677 159.151 342.156 149.948C334.411 149.823 326.672 149.745 318.932 149.719C312.557 149.661 306.083 149.448 299.688 149.719L298.469 149.938C297.776 151.005 297.87 152.651 297.833 153.927C297.443 173.24 298.042 192.594 297.979 211.906L298.01 274.354C297.958 295.219 297.672 316.13 297.901 336.995C293.099 337.042 288.297 337.063 283.5 337.052L283.318 215.917C275.792 215.031 267.208 215.656 259.568 215.667C253.427 215.667 244.896 215.188 239.036 215.922C237.932 220.844 238.484 226.708 238.484 231.74C238.438 240.24 238.469 248.745 238.578 257.25L238.672 303.281C238.672 314.51 238.917 325.849 238.432 337.083H224.688C224.542 321.802 224.479 306.516 224.495 291.229C224.495 284.958 225.292 264.276 223.641 259.583C219.115 258.458 210.328 259.182 205.474 259.198C197.104 259.198 188.594 258.932 180.245 259.391V336.948L166.849 337.026L166.719 310.026C166.719 305.396 166.922 300.688 166.688 296.068C160.307 295.146 153.328 295.63 146.875 295.62C138.422 295.62 129.854 295.323 121.406 295.688C121.073 301 121.26 306.385 121.266 311.708L121.333 337.073L108.932 337.125C107.094 337.125 105.141 336.911 103.318 337.156C102.255 337.219 101.333 337.615 100.552 338.339C100.193 338.714 100.245 338.875 100.177 339.344C100.714 340.214 101.495 340.698 102.516 340.802C106.49 341.469 114.63 340.938 119.099 340.964L167.635 340.922L354.693 341.068C355.828 341.068 357.115 341.068 358.094 340.432C358.604 340.083 358.958 339.62 359.161 339.042C359.068 338.474 358.75 338.104 358.198 337.938Z" fill="white"/>
</svg>
