<svg width="432" height="432" viewBox="0 0 432 432" fill="none" xmlns="http://www.w3.org/2000/svg">
<path fill-rule="evenodd" clip-rule="evenodd" d="M216 0L252.625 18.849L292.599 13.5156L318.792 42.974L357.443 50.8021L371.766 86.8958L405.557 106.979L406.922 146.073L432 177.193L419.661 216L432 254.812L406.922 285.927L405.557 325.021L371.766 345.104L357.443 381.198L318.792 389.031L292.599 418.484L252.625 413.156L216 432L179.375 413.156L139.401 418.484L113.208 389.031L74.5521 381.198L60.2344 345.104L26.4375 325.021L25.0781 285.927L0 254.812L12.3333 216L0 177.193L25.0781 146.073L26.4375 106.979L60.2344 86.8958L74.5521 50.8021L113.208 42.974L139.401 13.5156L179.375 18.849L216 0Z" fill="#90E0EF"/>
<path d="M325.292 245.422H106.646C104.828 245.422 103.339 243.938 103.339 242.12V112.781C103.339 104.026 110.443 96.9219 119.198 96.9219H312.797C321.552 96.9219 328.651 104.026 328.651 112.781V242.12C328.599 243.938 327.109 245.422 325.292 245.422ZM109.948 238.818H321.99V112.781C321.99 107.714 317.859 103.531 312.74 103.531H119.198C114.13 103.531 109.948 107.656 109.948 112.781V238.818Z" fill="white"/>
<path d="M312.797 280.495H119.198C110.443 280.495 103.339 273.396 103.339 264.641V242.12C103.339 240.302 104.828 238.818 106.646 238.818H325.292C327.109 238.818 328.599 240.302 328.599 242.12V264.641C328.599 273.396 321.495 280.495 312.797 280.495ZM109.948 245.422V264.641C109.948 269.703 114.078 273.891 119.198 273.891H312.797C317.859 273.891 322.047 269.76 322.047 264.641V245.422H109.948Z" fill="white"/>
<path d="M276.453 341.448H155.484C153.667 341.448 152.182 339.964 152.182 338.146V327.464C152.182 319.755 158.458 313.479 166.167 313.479H265.828C273.536 313.479 279.813 319.755 279.813 327.464V338.146C279.755 339.964 278.271 341.448 276.453 341.448ZM273.151 334.844V327.464C273.151 323.391 269.849 320.089 265.771 320.089H166.109C162.036 320.089 158.734 323.391 158.734 327.464V334.844H273.151Z" fill="white"/>
<path d="M248.042 295.031H183.896C182.078 295.031 180.594 293.547 180.594 291.729V277.193C180.594 275.375 182.078 273.891 183.896 273.891H248.042C249.859 273.891 251.344 275.375 251.344 277.193V291.729C251.344 293.547 249.859 295.031 248.042 295.031ZM187.198 288.427H244.74V280.495H187.198V288.427Z" fill="white"/>
<path d="M240.391 320.089H191.547C190.557 320.089 189.62 319.646 189.016 318.875C188.411 318.104 188.135 317.115 188.302 316.12L193.089 291.068C193.365 289.526 194.745 288.37 196.339 288.37H235.599C237.193 288.37 238.573 289.474 238.849 291.068L243.635 316.12C243.802 317.115 243.583 318.104 242.922 318.875C242.318 319.646 241.38 320.089 240.391 320.089ZM195.516 313.479H236.37L232.844 295.031H199.036L195.516 313.479Z" fill="white"/>
<path d="M197.167 228.245C195.901 228.245 194.688 227.474 194.193 226.318L179.823 195.484L172.333 208.641C171.729 209.688 170.625 210.292 169.469 210.292H124.594C122.776 210.292 121.292 208.807 121.292 206.99C121.292 205.172 122.776 203.688 124.594 203.688H167.484L177.234 186.615C177.839 185.573 178.995 184.911 180.26 184.964C181.474 185.021 182.573 185.734 183.125 186.891L197.219 217.12L211.318 186.891C211.865 185.734 213.021 184.964 214.292 184.964C215.557 184.964 216.766 185.734 217.26 186.891L224.474 202.583H241.547C242.589 202.583 243.583 203.078 244.245 203.964L250.188 212.219L256.354 203.74C256.964 202.859 257.953 202.365 259.052 202.365H307.344C309.161 202.365 310.646 203.849 310.646 205.667C310.646 207.484 309.161 208.974 307.344 208.974H260.76L252.943 219.766C252.339 220.646 251.344 221.141 250.245 221.141C249.198 221.141 248.208 220.646 247.547 219.766L239.891 209.193H222.385C221.115 209.193 219.906 208.422 219.354 207.266L214.234 196.089L200.193 226.26C199.641 227.474 198.484 228.245 197.167 228.245Z" fill="white"/>
<path d="M134.562 262.99H128.557C126.74 262.99 125.255 261.5 125.255 259.682C125.255 257.865 126.74 256.38 128.557 256.38H134.562C136.375 256.38 137.865 257.865 137.865 259.682C137.865 261.5 136.375 262.99 134.562 262.99Z" fill="white"/>
<path d="M156.422 262.99H150.417C148.599 262.99 147.115 261.5 147.115 259.682C147.115 257.865 148.599 256.38 150.417 256.38H156.422C158.234 256.38 159.724 257.865 159.724 259.682C159.724 261.5 158.234 262.99 156.422 262.99Z" fill="white"/>
<path d="M281.521 262.99H275.516C273.703 262.99 272.214 261.5 272.214 259.682C272.214 257.865 273.703 256.38 275.516 256.38H281.521C283.339 256.38 284.823 257.865 284.823 259.682C284.823 261.5 283.391 262.99 281.521 262.99Z" fill="white"/>
<path d="M303.38 262.99H297.375C295.562 262.99 294.073 261.5 294.073 259.682C294.073 257.865 295.562 256.38 297.375 256.38H303.38C305.198 256.38 306.682 257.865 306.682 259.682C306.682 261.5 305.25 262.99 303.38 262.99Z" fill="white"/>
<path d="M325.292 174.615H106.646C104.828 174.615 103.339 173.125 103.339 171.307C103.339 169.495 104.828 168.005 106.646 168.005H325.292C327.109 168.005 328.599 169.495 328.599 171.307C328.599 173.125 327.109 174.615 325.292 174.615Z" fill="white"/>
<path d="M215.995 174.505C214.177 174.505 212.693 173.016 212.693 171.198V100.281C212.693 98.4635 214.177 96.974 215.995 96.974C217.812 96.974 219.302 98.4635 219.302 100.281V171.198C219.302 173.016 217.812 174.505 215.995 174.505Z" fill="white"/>
<path d="M159.943 158.151C159.12 158.151 158.234 157.818 157.63 157.161C147.776 147.302 137.531 137.062 137.531 126.161C137.531 119.057 143.313 113.276 150.417 113.276C154.932 113.276 157.849 115.036 160 117.568C162.146 115.036 165.01 113.276 169.578 113.276C176.682 113.276 182.464 119.057 182.464 126.161C182.464 137.115 172.224 147.302 162.365 157.161C161.651 157.818 160.823 158.151 159.943 158.151ZM150.417 119.88C146.948 119.88 144.141 122.693 144.141 126.161C144.141 133.646 151.849 141.964 159.943 150.167C168.094 141.964 175.745 133.646 175.745 126.161C175.745 122.693 172.938 119.88 169.469 119.88C166.771 119.88 165.172 120.651 162.859 125.224C162.313 126.323 161.156 127.042 159.891 127.042C158.62 127.042 157.464 126.323 156.917 125.224C154.714 120.651 153.115 119.88 150.417 119.88Z" fill="white"/>
<path d="M298.974 122.083H239.396C237.578 122.083 236.094 120.599 236.094 118.781C236.094 116.964 237.578 115.479 239.396 115.479H298.974C300.792 115.479 302.276 116.964 302.276 118.781C302.276 120.599 300.792 122.083 298.974 122.083Z" fill="white"/>
<path d="M298.974 139.042H239.396C237.578 139.042 236.094 137.557 236.094 135.74C236.094 133.922 237.578 132.438 239.396 132.438H298.974C300.792 132.438 302.276 133.922 302.276 135.74C302.276 137.557 300.792 139.042 298.974 139.042Z" fill="white"/>
<path d="M298.974 155.948H239.396C237.578 155.948 236.094 154.458 236.094 152.646C236.094 150.828 237.578 149.339 239.396 149.339H298.974C300.792 149.339 302.276 150.828 302.276 152.646C302.276 154.458 300.792 155.948 298.974 155.948Z" fill="white"/>
</svg>
