<svg width="50" height="46" viewBox="0 0 50 46" fill="none" xmlns="http://www.w3.org/2000/svg">
<path d="M2.5 6.55351H47.5C48.163 6.55351 48.7989 6.20828 49.2678 5.59377C49.7366 4.97926 50 4.1458 50 3.27675C50 2.4077 49.7366 1.57425 49.2678 0.95974C48.7989 0.345229 48.163 0 47.5 0H2.5C1.83696 0 1.20107 0.345229 0.732233 0.95974C0.263392 1.57425 0 2.4077 0 3.27675C0 4.1458 0.263392 4.97926 0.732233 5.59377C1.20107 6.20828 1.83696 6.55351 2.5 6.55351ZM47.5 19.6605H2.5C1.83696 19.6605 1.20107 20.0058 0.732233 20.6203C0.263392 21.2348 0 22.0682 0 22.9373C0 23.8063 0.263392 24.6398 0.732233 25.2543C1.20107 25.8688 1.83696 26.214 2.5 26.214H47.5C48.163 26.214 48.7989 25.8688 49.2678 25.2543C49.7366 24.6398 50 23.8063 50 22.9373C50 22.0682 49.7366 21.2348 49.2678 20.6203C48.7989 20.0058 48.163 19.6605 47.5 19.6605ZM47.5 39.321H2.5C1.83696 39.321 1.20107 39.6663 0.732233 40.2808C0.263392 40.8953 0 41.7288 0 42.5978C0 43.4669 0.263392 44.3003 0.732233 44.9148C1.20107 45.5293 1.83696 45.8746 2.5 45.8746H47.5C48.163 45.8746 48.7989 45.5293 49.2678 44.9148C49.7366 44.3003 50 43.4669 50 42.5978C50 41.7288 49.7366 40.8953 49.2678 40.2808C48.7989 39.6663 48.163 39.321 47.5 39.321Z" fill="#1E4E8C"/>
</svg>
