<svg width="432" height="432" viewBox="0 0 432 432" fill="none" xmlns="http://www.w3.org/2000/svg">
<path fill-rule="evenodd" clip-rule="evenodd" d="M216 0L252.625 18.849L292.599 13.5156L318.792 42.974L357.443 50.8021L371.766 86.8958L405.557 106.979L406.922 146.073L432 177.193L419.661 216L432 254.812L406.922 285.927L405.557 325.021L371.766 345.104L357.443 381.198L318.792 389.031L292.599 418.484L252.625 413.156L216 432L179.375 413.156L139.401 418.484L113.208 389.031L74.5521 381.198L60.2344 345.104L26.4375 325.021L25.0781 285.927L0 254.812L12.3333 216L0 177.193L25.0781 146.073L26.4375 106.979L60.2344 86.8958L74.5521 50.8021L113.208 42.974L139.401 13.5156L179.375 18.849L216 0Z" fill="#90E0EF"/>
<path d="M327.365 135.182C301.5 109.312 259.224 109.312 233.422 135.182L216.151 152.448L198.885 135.182C173.016 109.312 130.74 109.312 104.938 135.182C79.8646 160.255 79.1354 200.812 102.688 226.812H163.49L172.354 180.568C172.75 178.385 174.604 176.797 176.854 176.661C179.104 176.531 181.089 177.984 181.682 180.104L203.318 253.74L215.094 205.906C215.625 203.854 217.411 202.333 219.526 202.266C221.646 202.135 223.563 203.458 224.292 205.51L233.484 231.641L250.422 179.969C251.083 177.984 253.005 176.599 255.12 176.661C257.24 176.729 259.089 178.12 259.62 180.167L272.521 226.812H329.615C353.234 200.812 352.443 160.255 327.365 135.182ZM264.182 232.901L254.526 198.099L238.115 248.115C237.453 250.099 235.667 251.422 233.62 251.422H233.552C231.5 251.422 229.714 250.167 228.99 248.182L220.453 223.901L208.281 273.323C207.75 275.437 205.896 276.964 203.714 276.964H203.583C201.464 276.964 199.547 275.573 198.948 273.521L177.979 201.802L172.089 232.5C171.625 234.75 169.641 236.406 167.391 236.406H112.083L216.083 340.406L320.089 236.406H268.75C266.63 236.406 264.781 234.948 264.182 232.901Z" fill="white"/>
</svg>
