<svg width="432" height="432" viewBox="0 0 432 432" fill="none" xmlns="http://www.w3.org/2000/svg">
<path fill-rule="evenodd" clip-rule="evenodd" d="M216 0L252.625 18.849L292.599 13.5156L318.792 42.974L357.443 50.8021L371.766 86.8958L405.557 106.979L406.922 146.073L432 177.193L419.661 216L432 254.812L406.922 285.927L405.557 325.021L371.766 345.104L357.443 381.198L318.792 389.031L292.599 418.484L252.625 413.156L216 432L179.375 413.156L139.401 418.484L113.208 389.031L74.5521 381.198L60.2344 345.104L26.4375 325.021L25.0781 285.927L0 254.812L12.3333 216L0 177.193L25.0781 146.073L26.4375 106.979L60.2344 86.8958L74.5521 50.8021L113.208 42.974L139.401 13.5156L179.375 18.849L216 0Z" fill="#90E0EF"/>
<path fill-rule="evenodd" clip-rule="evenodd" d="M347.438 138.448C337.448 156.589 314.969 158.693 289.078 158.427C289.078 156.458 288.948 154.354 288.812 152.38C288.682 150.016 288.552 147.781 288.422 145.417C290.656 145.547 292.76 145.677 294.995 145.812L303.797 154.615C304.193 155.01 304.589 155.141 304.979 155.141C307.875 155.406 310.635 154.88 313.13 153.172C313.656 152.906 313.922 152.38 313.922 151.724C313.922 151.198 313.786 150.672 313.396 150.146L309.448 146.203C315.104 146.339 320.625 146.203 325.75 145.547L329.297 149.099C329.693 149.49 330.089 149.625 330.479 149.625C333.766 149.885 336 148.047 337.448 145.417C337.839 144.63 337.708 143.708 337.182 143.182C340.995 142.26 344.411 140.682 347.438 138.448ZM133.719 329.562L97.9688 293.807C95.2083 293.547 92.974 294.203 91 295.385L132.932 337.318C133.193 334.688 133.453 332.057 133.719 329.562ZM134.115 303.797C134.115 305.901 134.115 308.005 134.245 310.109C134.245 310.896 134.245 311.688 134.245 312.474L111.635 289.865C113.479 288.552 115.844 288.026 118.604 288.292L134.115 303.797ZM224.542 153.568C191.156 171.833 212.188 232.427 202.068 278.432C204.302 277.51 206.401 276.328 208.375 274.88L211.135 272.911C229.141 236.635 205.219 180.25 224.542 153.568ZM155.536 222.573C136.214 249.25 160.135 305.641 142.13 341.917L139.37 343.885C137.401 345.333 135.297 346.385 133.062 347.438C143.052 301.432 122.151 240.839 155.536 222.573ZM209.427 276.458C199.438 294.599 176.964 296.703 151.068 296.438C151.068 294.469 150.938 292.365 150.807 290.391C150.672 288.026 150.542 285.792 150.411 283.427C152.776 283.557 155.141 283.688 157.51 283.818L165.526 291.839C165.922 292.234 166.312 292.365 166.708 292.365C169.599 292.625 172.359 292.099 174.859 290.391C175.385 290.13 175.646 289.604 175.646 288.948C175.646 288.422 175.516 287.896 175.12 287.37L171.969 284.214C176.568 284.344 181.036 284.214 185.375 283.818L189.708 288.286C190.104 288.682 190.5 288.812 190.896 288.812C194.182 289.078 196.417 287.24 197.859 284.609C198.255 283.818 198.125 282.901 197.599 282.375L197.333 282.109C201.802 280.797 205.88 279.089 209.427 276.458ZM133.979 296.042C132.271 296.042 130.698 295.911 128.984 295.911L119.917 286.844C119.521 286.448 119.13 286.318 118.734 286.318C115.844 286.052 113.083 286.578 110.583 288.286C110.057 288.552 109.797 289.078 109.797 289.734C109.797 290.26 109.927 290.786 110.323 291.312L115.052 296.042C111.109 296.042 107.167 296.307 103.224 296.568L99.2812 292.625C98.8854 292.234 98.4948 292.099 98.099 292.099C95.2083 291.839 92.4479 292.365 89.9479 294.073C89.4219 294.333 89.1615 294.859 89.1615 295.516C89.1615 296.042 89.2917 296.568 89.6875 297.094L90.7396 298.146C88.6354 298.411 86.6615 298.802 84.5625 299.328C85.4792 297.094 86.6615 294.995 88.1094 293.021L90.0833 290.26C102.828 283.953 118.078 282.771 133.719 283.161C133.719 284.609 133.719 285.922 133.849 287.37C133.849 290 133.849 293.021 133.979 296.042ZM202.594 261.214C202.594 261.74 202.458 262.266 202.458 262.792C202.328 264.891 202.068 266.865 201.802 268.969L159.089 226.25C160.927 224.938 163.292 224.411 166.052 224.672L202.594 261.214ZM203.12 235.583C203.12 236.24 203.12 236.896 203.12 237.552C203.12 239.786 203.12 242.021 203.12 244.255L178.276 219.417C180.115 218.099 182.484 217.578 185.24 217.839L203.12 235.583ZM149.885 245.703C150.146 243.208 150.542 240.708 150.938 238.214L196.281 283.557C195.229 285.266 193.786 287.104 191.026 286.844L149.885 245.703ZM173.938 288.948L149.49 264.5C149.625 266.604 149.625 268.839 149.755 270.938C149.755 271.729 149.885 272.646 149.885 273.438L166.974 290.526C169.734 290.786 172.099 290.26 173.938 288.948ZM218.625 186.427C218.625 185.505 218.625 184.583 218.625 183.797C218.625 181.958 218.76 180.115 218.891 178.276L258.323 217.708C257.271 219.417 255.563 220.859 252.802 220.729L218.625 186.427ZM235.188 221.521C233.349 222.833 230.984 223.359 228.224 223.094L219.812 214.682C219.677 211.661 219.417 208.635 219.286 205.615L235.188 221.521ZM278.432 207.453C268.443 225.594 245.964 227.698 220.073 227.432C220.073 225.464 219.943 223.359 219.812 221.385C219.812 219.943 219.677 218.625 219.547 217.182L226.776 224.411C227.172 224.807 227.563 224.938 227.958 224.938C230.849 225.198 233.609 224.672 236.109 222.964C236.635 222.703 236.896 222.177 236.896 221.521C236.896 220.995 236.766 220.469 236.37 219.943L231.375 214.948C235.979 215.208 240.578 215.344 245.047 215.344L251.484 221.781C251.88 222.177 252.276 222.307 252.802 222.307C255.823 222.307 258.453 220.995 259.901 218.365C260.292 217.578 260.161 216.656 259.635 216.13L258.057 214.552C265.943 213.63 272.911 211.531 278.432 207.453ZM202.984 227.042C201.016 227.042 199.172 226.906 197.203 226.906L186.688 216.391C186.292 216 185.901 215.865 185.505 215.865C182.615 215.604 179.854 216.13 177.354 217.839C176.828 218.099 176.568 218.625 176.568 219.286C176.568 219.813 176.698 220.333 177.094 220.859L183.271 227.042C179.328 227.172 175.385 227.302 171.443 227.562L167.234 223.359C166.839 222.964 166.448 222.833 166.052 222.833C163.161 222.573 160.401 223.094 157.901 224.807C157.375 225.068 157.115 225.594 157.115 226.25C157.115 226.776 157.245 227.302 157.641 227.828L158.953 229.141C157.115 229.406 155.276 229.797 153.432 230.193C154.354 227.958 155.536 225.854 156.984 223.885L158.953 221.125C171.703 214.818 186.953 213.63 202.594 214.026C202.594 215.474 202.594 216.786 202.724 218.234C202.854 220.995 202.854 224.016 202.984 227.042ZM225.724 158.297L270.411 202.984C270.021 205.354 269.625 207.849 269.099 210.083L221.911 162.896C222.438 161.453 223.094 160.005 223.755 158.693C224.146 158.427 224.938 158.297 225.724 158.297ZM249.516 151.198C246.755 150.938 244.521 151.594 242.547 152.776L271.99 182.219C272.12 179.328 272.12 176.568 272.12 173.807L249.516 151.198ZM330.745 148.177C333.505 148.437 334.948 146.599 336 144.891L289.474 98.3594C288.813 100.729 288.422 103.094 288.156 105.589L330.745 148.177ZM305.245 153.432C308.005 153.698 310.24 153.042 312.208 151.859L287.63 127.276C287.766 129.25 287.766 131.219 287.896 133.062C287.896 134.115 288.026 135.167 288.026 136.214L305.245 153.432ZM293.547 84.5625C268.443 98.3594 274.094 136.214 274.094 173.677V173.807C274.094 176.698 274.094 179.458 273.964 182.349C273.964 182.484 273.964 182.484 273.964 182.615C273.698 189.578 273.307 196.417 272.255 202.984C272.255 203.12 272.255 203.12 272.255 203.25C271.99 205.354 271.599 207.323 271.073 209.427C273.307 208.505 275.406 207.323 277.38 205.88L280.141 203.906C290.917 182.219 286.714 153.302 285.661 127.938V127.146C285.396 119.521 285.396 112.161 286.188 105.328V105.198C286.448 102.698 286.974 100.203 287.5 97.7031V97.5729C288.812 92.8437 290.786 88.375 293.547 84.5625ZM271.99 158.167C267.651 158.036 263.318 158.036 258.979 157.901L250.958 149.885C250.568 149.49 250.172 149.359 249.776 149.359C246.885 149.099 244.125 149.625 241.63 151.333C241.104 151.594 240.839 152.12 240.839 152.776C240.839 153.302 240.974 153.828 241.365 154.354L245.307 158.297C240.052 158.563 234.792 158.953 229.667 159.745L227.042 157.115C226.646 156.719 226.25 156.589 225.854 156.589C225.464 156.589 225.198 156.589 224.807 156.589C225.198 155.932 225.594 155.406 225.99 154.75L227.958 151.99C240.708 145.677 255.953 144.495 271.599 144.891C271.599 146.339 271.599 147.651 271.729 149.099C271.859 151.99 271.859 155.01 271.99 158.167Z" fill="white"/>
</svg>
