<svg width="101" height="100" viewBox="0 0 101 100" fill="none" xmlns="http://www.w3.org/2000/svg">
<path d="M50.1338 2.5C76.4476 2.5 97.7676 23.7728 97.7676 50C97.7676 76.2272 76.4476 97.5 50.1338 97.5C23.8201 97.4999 2.5 76.2272 2.5 50C2.5 23.7728 23.8201 2.50008 50.1338 2.5Z" fill="#90E0EF" stroke="#1E4E8C" stroke-width="5"/>
<mask id="mask0_148_138" style="mask-type:luminance" maskUnits="userSpaceOnUse" x="29" y="23" width="43" height="54">
<path d="M29 23H71.6667V77H29V23Z" fill="white"/>
</mask>
<g mask="url(#mask0_148_138)">
<path d="M50.3306 22.975C38.5973 22.975 29.0488 30.4841 29.0488 39.7141C29.0488 48.763 49.117 75.3173 49.9716 76.4423L50.3306 76.9202L50.6943 76.4423C51.5488 75.3173 71.6155 48.763 71.6155 39.7141C71.6125 30.4841 62.0655 22.975 50.3306 22.975ZM50.3306 47.5295C45.2564 47.5295 41.1261 44.282 41.1261 40.2897C41.1261 36.2974 45.2564 33.0487 50.3306 33.0487C55.4064 33.0487 59.5382 36.2962 59.5382 40.2897C59.5382 44.2809 55.4064 47.5295 50.3306 47.5295Z" fill="white"/>
</g>
</svg>
