<svg width="101" height="100" viewBox="0 0 101 100" fill="none" xmlns="http://www.w3.org/2000/svg">
<path d="M50.1338 2.5C76.4476 2.5 97.7676 23.7728 97.7676 50C97.7676 76.2272 76.4476 97.5 50.1338 97.5C23.8201 97.4999 2.5 76.2272 2.5 50C2.5 23.7728 23.8201 2.50008 50.1338 2.5Z" fill="#90E0EF" stroke="#1E4E8C" stroke-width="5"/>
<path fill-rule="evenodd" clip-rule="evenodd" d="M39.1471 36.0001C36.4075 37.3657 32.7963 38.9218 28.751 39.3083C28.3157 39.3562 27.9927 39.7194 28.0001 40.1449C28.105 44.4166 28.2024 49.84 28.9755 52.2482C30.3342 56.7327 34.0046 60.3884 38.4185 61.9601V70.4623C38.4185 72.4049 39.935 74 41.7819 74H69.6366C71.4909 74 73 72.4127 73 70.4623V38.5509C73 37.9349 72.7967 37.4136 72.3847 36.9792L63.5114 27.6472C63.1069 27.2205 62.6038 27 62.0256 27H41.7819C39.9276 27 38.4185 28.5862 38.4185 30.5444V31.7128C38.4185 31.9579 38.606 32.155 38.8389 32.155H40.8055C41.0385 32.155 41.2259 31.9579 41.2259 31.7128V30.5444C41.2259 30.2213 41.4811 29.9607 41.7819 29.9607H61.5904V35.882C61.5904 37.603 62.9194 39.0009 64.5556 39.0009H70.1926V70.4623C70.1926 70.7787 69.9374 71.0471 69.6366 71.0471H41.7819C41.4737 71.0471 41.2259 70.7865 41.2259 70.4623V61.9991C41.2259 61.8331 41.1359 61.6828 41.0003 61.6048C44.9938 59.8438 48.0871 56.4409 49.4077 52.256C50.3682 49.2085 50.3163 44.4244 50.3841 40.1449C50.3915 39.7194 50.0685 39.3562 49.6333 39.3161C45.572 38.9296 41.9386 37.3657 39.1916 36.0001H39.1471ZM52.6355 56.599H67.0919C67.2645 56.599 67.4 56.4487 67.4 56.2671V54.9962C67.4 54.8146 67.2645 54.6642 67.0919 54.6642H52.6355C52.4629 54.6642 52.3274 54.8146 52.3274 54.9962V56.2671C52.3274 56.4487 52.4629 56.599 52.6355 56.599ZM53.6935 46.9116H67.0919C67.2645 46.9116 67.4 47.0609 67.4 47.2425V48.5223C67.4 48.7039 67.2645 48.8531 67.0919 48.8531H53.6935C53.5283 48.8531 53.3864 48.7039 53.3864 48.5223V47.2425C53.3864 47.0609 53.5283 46.9116 53.6935 46.9116ZM53.9042 44.9768H67.0919C67.2645 44.9768 67.4 44.8276 67.4 44.646V43.374C67.4 43.1924 67.2645 43.0432 67.0919 43.0432H53.9042C53.739 43.0432 53.6034 43.1924 53.6034 43.374V44.646C53.6034 44.8276 53.739 44.9768 53.9042 44.9768ZM45.4524 62.4101H67.0919C67.2645 62.4101 67.4 62.5594 67.4 62.7409V64.0119C67.4 64.1934 67.2645 64.3438 67.0919 64.3438H45.4524C45.2872 64.3438 45.1516 64.1934 45.1516 64.0119V62.7409C45.1516 62.5594 45.2872 62.4101 45.4524 62.4101ZM50.1363 58.5327H67.0919C67.2645 58.5327 67.4 58.6831 67.4 58.8647V60.1434C67.4 60.3249 67.2645 60.4753 67.0919 60.4753H50.1363C49.9711 60.4753 49.8281 60.3249 49.8281 60.1434V58.8647C49.8281 58.6831 49.9711 58.5327 50.1363 58.5327ZM53.5516 52.7227H67.0919C67.2645 52.7227 67.4 52.5724 67.4 52.3908V51.1199C67.4 50.9383 67.2645 50.7879 67.0919 50.7879H53.5516C53.3789 50.7879 53.2434 50.9383 53.2434 51.1199V52.3908C53.2434 52.5724 53.3789 52.7227 53.5516 52.7227ZM36.7368 47.2748L38.3359 49.0514L42.0445 45.2375C42.3442 44.9223 42.8398 44.9301 43.1406 45.2453L44.2208 46.4137C44.5141 46.7301 44.5067 47.2425 44.2059 47.5588L39.3716 52.5323L38.8093 53.1171C38.6589 53.2752 38.4715 53.3543 38.2533 53.3465C38.0362 53.3376 37.8562 53.2507 37.7058 53.0859L37.1657 52.4777L34.4854 49.4847C34.1931 49.1617 34.2154 48.6404 34.5235 48.3408L35.6418 47.2347C35.7986 47.0776 35.9871 47.0063 36.1967 47.0141C36.4075 47.0219 36.5875 47.1088 36.7368 47.2748ZM39.1619 39.3161C37.1128 40.3342 34.4102 41.5027 31.3931 41.7878C31.0702 41.819 30.8223 42.0952 30.8298 42.4194C30.9124 45.6006 30.9875 49.6507 31.5658 51.4507C32.6237 54.9561 35.5741 57.7831 39.0719 58.8647C39.199 58.9036 39.3197 58.8958 39.4468 58.8569C42.9521 57.7274 45.7224 54.9561 46.8259 51.4585C47.5386 49.1851 47.5015 45.6084 47.5534 42.4116C47.5534 42.0952 47.3141 41.8268 46.9911 41.7956C43.9581 41.5027 41.2482 40.3431 39.1916 39.3161H39.1619Z" fill="white"/>
</svg>
