<svg width="101" height="100" viewBox="0 0 101 100" fill="none" xmlns="http://www.w3.org/2000/svg">
<path d="M50.1338 2.5C76.4476 2.5 97.7676 23.7728 97.7676 50C97.7676 76.2272 76.4476 97.5 50.1338 97.5C23.8201 97.4999 2.5 76.2272 2.5 50C2.5 23.7728 23.8201 2.50008 50.1338 2.5Z" fill="#90E0EF" stroke="#1E4E8C" stroke-width="5"/>
<path d="M72.9331 23.2201L66.324 30.7869C66.2035 30.7043 66.0778 30.6336 65.947 30.5746C65.8151 30.5156 65.6812 30.4696 65.5432 30.4366C65.4051 30.4036 65.2661 30.3835 65.125 30.3765C64.9849 30.3694 64.8448 30.3765 64.7047 30.3953C64.5646 30.4154 64.4276 30.4484 64.2926 30.4944C64.1577 30.5404 64.0269 30.5982 63.9002 30.6689C63.7735 30.7397 63.653 30.8222 63.5386 30.9154C63.4243 31.0098 63.3171 31.1135 63.2172 31.2268L60.2433 34.6316C60.0682 34.5301 59.8838 34.4617 59.6902 34.4264C59.4965 34.3922 59.3029 34.3922 59.1092 34.4275C58.9156 34.4617 58.7312 34.5301 58.5561 34.6327C58.382 34.7342 58.2244 34.8639 58.0853 35.0231L55.7491 37.6991C55.6419 37.6071 55.5276 37.5257 55.4081 37.4573C55.2886 37.3889 55.164 37.3323 55.0362 37.2898C54.9075 37.2462 54.7767 37.2167 54.6438 37.2002C54.5099 37.1837 54.377 37.1801 54.2431 37.1919C54.1092 37.2026 53.9783 37.2273 53.8485 37.2651C53.7187 37.3028 53.592 37.3535 53.4705 37.4172C53.3489 37.4809 53.2325 37.5564 53.1234 37.6448C53.0131 37.7321 52.9101 37.83 52.8164 37.9385L34.8557 58.504L34.6322 58.2469C34.5384 58.1396 34.4365 58.0429 34.3262 57.9592C34.216 57.8743 34.0986 57.8035 33.976 57.7445C33.8534 57.6867 33.7278 57.6431 33.5969 57.6136C33.4671 57.583 33.3353 57.5688 33.2024 57.5688C33.0695 57.5688 32.9387 57.583 32.8079 57.6136C32.6781 57.6431 32.5514 57.6867 32.4288 57.7445C32.3062 57.8035 32.1898 57.8743 32.0796 57.9592C31.9694 58.0429 31.8674 58.1384 31.7726 58.2469C31.6789 58.3543 31.5955 58.471 31.5213 58.5972C31.4482 58.7234 31.3853 58.8567 31.3348 58.997C31.2844 59.1373 31.2452 59.2824 31.2195 59.431C31.1937 59.5808 31.1803 59.7317 31.1803 59.8827C31.1803 60.0348 31.1937 60.1858 31.2195 60.3344C31.2452 60.4842 31.2833 60.628 31.3348 60.7684C31.3853 60.9099 31.4482 61.0432 31.5213 61.1694C31.5955 61.2956 31.6789 61.4123 31.7726 61.5196L34.7197 64.8938L30.6179 69.5923L29.2365 68.0143C29.148 67.9153 29.0522 67.8256 28.9481 67.7478C28.8441 67.6688 28.7349 67.6027 28.6195 67.5497C28.5052 67.4954 28.3857 67.4553 28.2641 67.4282C28.1426 67.4011 28.019 67.3881 27.8943 67.3881C27.7707 67.3893 27.6471 67.4034 27.5256 67.4317C27.404 67.4589 27.2856 67.5013 27.1702 67.5556C27.0558 67.6098 26.9467 67.677 26.8436 67.7561C26.7406 67.8351 26.6448 67.9259 26.5573 68.0261C26.4687 68.1264 26.3904 68.2361 26.3214 68.354C26.2524 68.4719 26.1937 68.5969 26.1463 68.729C26.0979 68.8599 26.0618 68.9956 26.0371 69.1347C26.0134 69.2739 26 69.4154 26 69.5581C26 69.6996 26.0113 69.8412 26.035 69.9803C26.0587 70.1207 26.0937 70.2563 26.1411 70.3872C26.1875 70.5193 26.2452 70.6443 26.3142 70.7634C26.3822 70.8825 26.4594 70.9922 26.547 71.0936L31.9951 77.3312C32.0827 77.4362 32.1785 77.5294 32.2825 77.6119C32.3866 77.6945 32.4968 77.7641 32.6132 77.8218C32.7286 77.8785 32.8491 77.9221 32.9727 77.9528C33.0963 77.9822 33.2209 77.9976 33.3476 77.9999C33.4743 78.0011 33.6 77.9881 33.7236 77.961C33.8483 77.9339 33.9688 77.8926 34.0852 77.8384C34.2026 77.7829 34.3139 77.7157 34.4189 77.6355C34.524 77.5553 34.6219 77.4645 34.7115 77.3619C34.8011 77.2593 34.8804 77.1484 34.9505 77.027C35.0205 76.9067 35.0792 76.7793 35.1266 76.646C35.175 76.5116 35.2111 76.3736 35.2348 76.2309C35.2585 76.0894 35.2698 75.9455 35.2688 75.8004C35.2667 75.6566 35.2533 75.5127 35.2276 75.3711C35.2008 75.2296 35.1627 75.0928 35.1132 74.9596C35.0627 74.8263 35.002 74.7001 34.9299 74.5822C34.8578 74.463 34.7764 74.3534 34.6857 74.2519L33.3054 72.6716L37.4103 67.9742L40.3574 71.3484C40.4512 71.4557 40.5531 71.5512 40.6634 71.6361C40.7736 71.721 40.89 71.7918 41.0126 71.8496C41.1351 71.9086 41.2618 71.9522 41.3916 71.9817C41.5225 72.0112 41.6533 72.0265 41.7862 72.0265C41.919 72.0265 42.0509 72.0112 42.1807 71.9817C42.3115 71.9522 42.4372 71.9086 42.5598 71.8496C42.6823 71.7918 42.7987 71.721 42.91 71.6361C43.0202 71.5524 43.1222 71.4557 43.2159 71.3484C43.3097 71.2411 43.3931 71.1243 43.4673 70.9981C43.5414 70.8719 43.6032 70.7386 43.6537 70.5971C43.7052 70.4568 43.7433 70.3129 43.7691 70.1631C43.7948 70.0145 43.8082 69.8636 43.8082 69.7126C43.8082 69.5605 43.7948 69.4095 43.7691 69.2609C43.7433 69.1111 43.7052 68.9673 43.6547 68.8269C43.6032 68.6866 43.5414 68.5521 43.4673 68.4259C43.3941 68.2997 43.3097 68.183 43.2159 68.0757L42.9924 67.8186L60.9521 47.2542C61.0468 47.1457 61.1323 47.0277 61.2096 46.9027C61.2858 46.7765 61.3517 46.6433 61.4074 46.5041C61.463 46.3649 61.5083 46.2211 61.5413 46.0725C61.5742 45.9239 61.5959 45.7729 61.6051 45.6196C61.6144 45.4663 61.6123 45.3141 61.5979 45.1608C61.5835 45.0087 61.5577 44.8589 61.5196 44.7115C61.4815 44.5641 61.4331 44.4226 61.3723 44.2857C61.3126 44.1478 61.2425 44.018 61.1622 43.8954L63.4995 41.2194C63.6375 41.0602 63.7508 40.881 63.8404 40.6805C63.929 40.4812 63.9888 40.27 64.0197 40.0483C64.0506 39.8266 64.0506 39.6049 64.0197 39.3832C63.9898 39.1615 63.93 38.9504 63.8415 38.751L66.8143 35.3451C66.9142 35.2319 67.0049 35.1092 67.0862 34.9771C67.1676 34.8462 67.2387 34.7082 67.3005 34.5632C67.3623 34.4181 67.4128 34.2683 67.453 34.1138C67.4921 33.9593 67.5209 33.8025 67.5385 33.6433C67.5549 33.4829 67.5611 33.3225 67.5549 33.1621C67.5488 33.0005 67.5312 32.8413 67.5024 32.6844C67.4725 32.5264 67.4324 32.3731 67.3809 32.2233C67.3294 32.0724 67.2675 31.9285 67.1954 31.7905L73.8076 24.2214C74.3906 23.5539 73.5171 22.5526 72.9331 23.2201ZM33.8091 75.252C33.8781 75.3216 33.9317 75.4042 33.9709 75.4997C34.01 75.594 34.0306 75.6943 34.0337 75.7993C34.0368 75.9054 34.0213 76.0068 33.9873 76.1047C33.9533 76.2026 33.9039 76.2887 33.839 76.363C33.7741 76.4373 33.6989 76.4939 33.6134 76.5316C33.5279 76.5706 33.4393 76.5882 33.3476 76.5859C33.256 76.5823 33.1684 76.5576 33.085 76.5128C33.0026 76.4679 32.9305 76.4066 32.8697 76.3276L27.4215 70.09C27.3587 70.0181 27.3113 69.9355 27.2773 69.8423C27.2433 69.7492 27.2268 69.6525 27.2268 69.551C27.2268 69.4496 27.2433 69.3529 27.2773 69.2586C27.3113 69.1654 27.3587 69.0828 27.4215 69.0121C27.4833 68.9401 27.5554 68.8859 27.6368 68.847C27.7182 68.8092 27.8027 68.7904 27.8912 68.7904C27.9788 68.7904 28.0633 68.8092 28.1447 68.847C28.226 68.8859 28.2981 68.9401 28.361 69.0121L33.8091 75.252ZM32.4309 71.6715L31.4914 70.5959L35.5953 65.8986L36.5348 66.9742L32.4309 71.6715ZM42.3414 70.3483C42.2672 70.432 42.1827 70.4969 42.0859 70.5417C41.9901 70.5877 41.8902 70.6101 41.7862 70.6101C41.6821 70.6101 41.5822 70.5877 41.4864 70.5417C41.3896 70.4969 41.3051 70.432 41.2309 70.3483L32.6451 60.5195C32.572 60.4346 32.5153 60.3379 32.4752 60.2282C32.436 60.1174 32.4154 60.003 32.4154 59.8839C32.4154 59.7648 32.436 59.6504 32.4752 59.5407C32.5153 59.431 32.572 59.3331 32.6451 59.2494C32.7193 59.1645 32.8038 59.0996 32.8996 59.0548C32.9964 59.0088 33.0963 58.9864 33.2003 58.9864C33.3044 58.9864 33.4043 59.0088 33.5001 59.0548C33.5969 59.0996 33.6814 59.1645 33.7545 59.2494L42.3393 69.0769C42.4135 69.1607 42.4701 69.2586 42.5103 69.3682C42.5495 69.4791 42.5701 69.5935 42.5701 69.7126C42.5701 69.8317 42.5495 69.9461 42.5103 70.057C42.4701 70.1667 42.4135 70.2634 42.3393 70.3483H42.3414ZM60.0775 46.2529L58.4695 48.0951L56.1827 45.4781C55.5997 44.8212 54.7354 45.8118 55.3082 46.4793L57.594 49.0963L56.26 50.6248L55.3339 49.5657C55.2752 49.502 55.2083 49.4525 55.1331 49.4195C55.0579 49.3853 54.9806 49.3688 54.8992 49.3699C54.8189 49.3711 54.7416 49.3888 54.6664 49.4254C54.5923 49.4608 54.5263 49.5115 54.4697 49.5775C54.412 49.6424 54.3687 49.7178 54.3368 49.8028C54.3059 49.8889 54.2894 49.9773 54.2884 50.0693C54.2874 50.1625 54.3018 50.2509 54.3317 50.337C54.3605 50.4231 54.4038 50.4998 54.4594 50.567L55.3844 51.626L54.0494 53.1533L51.7647 50.5363C51.7059 50.4726 51.639 50.4231 51.5638 50.3901C51.4886 50.3559 51.4113 50.3394 51.33 50.3405C51.2496 50.3417 51.1713 50.3594 51.0972 50.396C51.023 50.4314 50.9571 50.4821 50.9004 50.5481C50.8427 50.613 50.7984 50.6885 50.7675 50.7734C50.7356 50.8595 50.7201 50.9479 50.7191 51.0399C50.7181 51.1331 50.7325 51.2215 50.7614 51.3076C50.7912 51.3937 50.8345 51.4704 50.8901 51.5376L53.1759 54.1546L51.8419 55.683L50.919 54.624C50.3359 53.9576 49.4624 54.9577 50.0444 55.6252L50.9663 56.6831L49.6313 58.2116L47.3456 55.5946C46.7625 54.9271 45.889 55.9271 46.471 56.5958L48.7589 59.2128L47.4249 60.7413L46.4999 59.6822C45.9168 59.0147 45.0443 60.016 45.6253 60.6835L46.5514 61.7414L45.2153 63.2698L42.9296 60.6516C42.3465 59.9841 41.474 60.9854 42.055 61.6541L44.3428 64.2711L42.1178 66.8185L35.7302 59.5053L53.6899 38.9397C53.7847 38.8312 53.8939 38.7475 54.0175 38.6885C54.1421 38.6307 54.2709 38.6013 54.4048 38.6013C54.5387 38.6013 54.6675 38.6307 54.7911 38.6885C54.9147 38.7475 55.0239 38.8312 55.1186 38.9397L60.0775 44.616C60.1723 44.7245 60.2454 44.8495 60.2969 44.991C60.3484 45.1337 60.3731 45.2811 60.3731 45.4344C60.3731 45.5878 60.3484 45.7352 60.2969 45.8767C60.2454 46.0194 60.1723 46.1444 60.0775 46.2529ZM62.6239 40.2193L60.3052 42.8741L56.6421 38.6791L58.9599 36.0232C59.0186 35.9572 59.0866 35.9053 59.1628 35.8687C59.239 35.8333 59.3183 35.8145 59.4007 35.8145C59.4842 35.8145 59.5635 35.8333 59.6397 35.8687C59.7159 35.9053 59.7839 35.9572 59.8416 36.0232L62.6249 39.211C62.6836 39.2782 62.729 39.3549 62.7609 39.4421C62.7918 39.5294 62.8083 39.6202 62.8083 39.7158C62.8072 39.8101 62.7918 39.9009 62.7599 39.9882C62.7279 40.0755 62.6836 40.1533 62.6249 40.2193H62.6239ZM65.9398 34.345L63.0318 37.6755L61.1838 35.5609L64.0907 32.2269C64.1515 32.1585 64.2185 32.0971 64.2896 32.0441C64.3606 31.9898 64.4358 31.945 64.5151 31.9084C64.5945 31.8707 64.6758 31.8436 64.7593 31.8247C64.8437 31.807 64.9282 31.7976 65.0127 31.7976C65.0982 31.7988 65.1826 31.8082 65.2671 31.8282C65.3505 31.8471 65.4319 31.8754 65.5102 31.9131C65.5895 31.9509 65.6637 31.9969 65.7348 32.0511C65.8058 32.1054 65.8718 32.1679 65.9315 32.2363C65.9923 32.3059 66.0459 32.3802 66.0932 32.4615C66.1406 32.5429 66.1808 32.629 66.2138 32.7186C66.2467 32.8095 66.2714 32.9026 66.289 32.9982C66.3054 33.0937 66.3147 33.1904 66.3147 33.2883C66.3147 33.3862 66.3075 33.4829 66.291 33.5784C66.2745 33.6739 66.2508 33.7683 66.2189 33.8579C66.187 33.9487 66.1468 34.0348 66.1005 34.1162C66.0531 34.1987 66.0005 34.2742 65.9398 34.3438V34.345Z" fill="white"/>
<path d="M54.8323 40.611C54.8642 40.697 54.8807 40.7867 54.8838 40.8798C54.8859 40.9718 54.8745 41.0626 54.8478 41.1511C54.822 41.2395 54.7829 41.3186 54.7314 41.3905C54.6799 41.4624 54.6191 41.5214 54.549 41.5686C54.479 41.6146 54.4038 41.6452 54.3234 41.6606C54.2431 41.6759 54.1627 41.6747 54.0834 41.657C54.0041 41.6382 53.9299 41.6051 53.8609 41.5556C53.7919 41.5061 53.7322 41.4448 53.6827 41.3716C53.6333 41.2973 53.5972 41.216 53.5735 41.1275C53.5498 41.0391 53.5406 40.9471 53.5457 40.8551C53.5509 40.7619 53.5704 40.6735 53.6034 40.5885C53.6374 40.5036 53.6827 40.4282 53.7394 40.3633C53.7785 40.3185 53.8218 40.2796 53.8692 40.2477C53.9166 40.2147 53.966 40.1899 54.0196 40.1711C54.0721 40.1522 54.1257 40.1416 54.1803 40.1392C54.2359 40.1357 54.2905 40.1404 54.344 40.1522C54.3986 40.1652 54.4501 40.184 54.4996 40.2112C54.5501 40.2383 54.5964 40.2713 54.6387 40.3114C54.6809 40.3515 54.719 40.3975 54.752 40.4482C54.7849 40.4989 54.8117 40.5532 54.8323 40.611ZM52.5373 41.9059L45.4121 50.0635C45.3235 50.1649 45.2669 50.2852 45.2432 50.4255C45.2185 50.5659 45.2298 50.7027 45.2772 50.8348C45.3256 50.968 45.4018 51.073 45.5059 51.1532C45.6099 51.2322 45.7242 51.2723 45.8489 51.2723C46.0199 51.2723 46.1661 51.2027 46.2867 51.0647L53.4118 42.9072C53.9948 42.2396 53.1203 41.2384 52.5373 41.9059Z" fill="white"/>
</svg>
