<svg width="432" height="432" viewBox="0 0 432 432" fill="none" xmlns="http://www.w3.org/2000/svg">
<path fill-rule="evenodd" clip-rule="evenodd" d="M216 0L252.625 18.849L292.599 13.5156L318.792 42.974L357.443 50.8021L371.766 86.8958L405.557 106.979L406.922 146.073L432 177.193L419.661 216L432 254.812L406.922 285.927L405.557 325.021L371.766 345.104L357.443 381.198L318.792 389.031L292.599 418.484L252.625 413.156L216 432L179.375 413.156L139.401 418.484L113.208 389.031L74.5521 381.198L60.2344 345.104L26.4375 325.021L25.0781 285.927L0 254.812L12.3333 216L0 177.193L25.0781 146.073L26.4375 106.979L60.2344 86.8958L74.5521 50.8021L113.208 42.974L139.401 13.5156L179.375 18.849L216 0Z" fill="#90E0EF"/>
<path d="M223.724 153.661C223.724 165.281 224.599 176.984 223.505 188.5C222.109 203.276 214.781 215.354 203.047 224.719C196.74 229.74 189.703 233.052 182.021 235.214C180.906 235.526 179.839 236.094 178.797 236.62C175.411 238.318 174.594 241.031 174.734 244.771C175.13 255.552 174.437 266.391 175.344 277.115C177.646 304.417 202.255 325.875 229.51 325C258.229 324.078 281.344 301.333 281.948 273.214C282.172 262.667 281.917 252.104 282.083 241.557C282.125 238.667 281.401 237.219 278.464 236.135C267.214 231.979 260.557 221.302 261.125 209.094C261.651 197.833 269.714 187.828 280.786 184.661C292.052 181.443 303.885 185.625 310.635 195.203C320.677 209.453 314.911 229.432 298.661 235.932C295.63 237.146 294.875 238.63 294.932 241.687C295.125 251.75 295.068 261.833 294.974 271.906C294.651 308.828 264.901 338.156 227.964 338.052C191.651 337.943 162.062 308.255 161.839 271.677C161.781 262.323 161.823 252.969 161.823 243.625C161.823 238.974 160.073 237.203 155.615 235.615C149.557 233.464 143.276 231.448 137.823 228.161C123.531 219.547 115.151 206.552 112.198 190.135C111.656 187.089 111.411 183.943 111.396 180.844C111.328 161.661 111.312 142.474 111.375 123.292C111.417 109.375 118.979 98.7656 130.87 95.9791C139.724 93.9062 148.281 95.4896 156.552 98.8177C160.156 100.266 161.557 103.672 160.432 107.042C159.359 110.255 156.526 111.76 152.594 110.974C148.729 110.198 144.948 108.88 141.057 108.396C130.922 107.125 124.615 112.177 124.458 122.432C124.167 142.807 123.948 163.208 124.589 183.578C125.151 201.292 137.901 216.729 154.948 221.901C157.109 222.552 159.589 222.26 161.917 222.292C166.526 222.349 171.146 222.354 175.76 222.323C177.156 222.318 178.63 222.365 179.948 221.979C198.615 216.536 211.161 200.125 211.323 180.63C211.474 162.161 211.417 143.693 211.333 125.229C211.276 113.057 204.417 107.469 192.401 109.682C189.703 110.177 187.057 110.984 184.417 111.76C179.672 113.156 175.88 111.885 174.677 108.401C173.427 104.807 175.448 101.26 179.917 99.526C187.432 96.6146 195.224 95.3229 203.208 96.7344C215.917 98.9739 224.146 109.62 224.307 123.823C224.417 133.776 224.328 143.729 224.328 153.682C224.109 153.661 223.917 153.661 223.724 153.661ZM274.266 210.557C274.245 218.729 280.333 225.031 288.312 225.089C295.849 225.146 302.516 218.026 302.521 209.922C302.526 203.062 295.495 196.521 288.193 196.589C280.547 196.661 274.281 202.943 274.266 210.557Z" fill="white"/>
<path d="M288.901 203.38C293.25 203.536 296.047 206.464 295.958 210.75C295.875 214.885 292.719 217.828 288.458 217.745C284.448 217.667 280.964 214.12 281.198 210.354C281.438 206.354 284.896 203.224 288.901 203.38Z" fill="white"/>
</svg>
