<svg width="219" height="219" viewBox="0 0 219 219" fill="none" xmlns="http://www.w3.org/2000/svg">
<path fill-rule="evenodd" clip-rule="evenodd" d="M109.333 0.838553L127.729 10.3021L147.807 7.62501L160.964 22.4219L180.38 26.3542L187.573 44.4844L204.547 54.5729L205.234 74.2083L217.828 89.8386L211.635 109.333L217.828 128.828L205.234 144.458L204.547 164.094L187.573 174.182L180.38 192.313L160.964 196.245L147.807 211.042L127.729 208.365L109.333 217.828L90.9375 208.365L70.8594 211.042L57.7031 196.245L38.2864 192.313L31.0937 174.182L14.1198 164.094L13.4323 144.458L0.838518 128.828L7.03123 109.333L0.838518 89.8386L13.4323 74.2083L14.1198 54.5729L31.0937 44.4844L38.2864 26.3542L57.7031 22.4219L70.8594 7.62501L90.9375 10.3021L109.333 0.838553Z" fill="#90E0EF"/>
<path d="M155.328 55.6094C152.667 55.6094 149.286 55.9323 145.286 56.5833C141.125 57.2552 138.26 58.0261 136.526 58.9583C134.797 59.8802 132.193 62.1875 128.552 66.0104C125.036 69.7136 120.521 75.5156 115.141 83.2656C109.781 91 105.052 98.5156 101.078 105.625C97.5312 111.984 93.901 118.964 90.2864 126.417C87.7448 123.198 85.0781 120.615 82.3333 118.729C78.8385 116.333 75.5 115.12 72.4062 115.12C69.2396 115.12 65.7864 116.5 62.1302 119.229C58.3177 122.068 56.3906 125.297 56.3906 128.818C56.3906 131.474 58.0364 134.573 61.4271 138.302C66.3646 143.714 70.3437 148.734 73.2604 153.234C75.4323 156.578 76.9218 158.693 77.8229 159.682C78.8333 160.807 80.125 161.651 81.6562 162.208C83.125 162.734 85.5625 163 89.125 163C94 163 97.3229 162.479 99.2812 161.417C101.245 160.339 102.792 158.818 103.885 156.885C104.87 155.146 106.422 151.661 108.609 146.255C114.052 132.682 121.453 118.479 130.609 104.042C139.74 89.6458 148.687 78.3594 157.187 70.5052C159.271 68.6094 160.547 67.2604 161.182 66.2552C161.906 65.1302 162.271 63.8177 162.271 62.349C162.271 60.5052 161.625 58.9011 160.344 57.5938C159.057 56.2761 157.365 55.6094 155.328 55.6094Z" fill="white"/>
</svg>
