<svg width="432" height="432" viewBox="0 0 432 432" fill="none" xmlns="http://www.w3.org/2000/svg">
<path fill-rule="evenodd" clip-rule="evenodd" d="M216 0L252.625 18.849L292.599 13.5156L318.792 42.974L357.443 50.8021L371.766 86.8958L405.557 106.979L406.922 146.073L432 177.193L419.661 216L432 254.812L406.922 285.927L405.557 325.021L371.766 345.104L357.443 381.198L318.792 389.031L292.599 418.484L252.625 413.156L216 432L179.375 413.156L139.401 418.484L113.208 389.031L74.5521 381.198L60.2344 345.104L26.4375 325.021L25.0781 285.927L0 254.812L12.3333 216L0 177.193L25.0781 146.073L26.4375 106.979L60.2344 86.8958L74.5521 50.8021L113.208 42.974L139.401 13.5156L179.375 18.849L216 0Z" fill="#90E0EF"/>
<path d="M204.328 363.964C204.172 363.964 204.01 363.964 203.849 363.958C197.599 363.823 191.875 361.188 187.724 356.542C183.635 351.958 181.609 345.828 182.167 339.714C182.516 335.906 183.844 332.245 186.01 329.115C189.193 324.521 191.417 319.219 192.62 313.349C192.656 313.188 192.792 312.422 193.13 309.547C193.38 307.422 192.104 305.422 190.094 304.786C176.917 300.635 164.75 293.266 154.901 283.474C153.365 281.943 150.958 281.74 149.187 282.995L142.344 287.828C134.443 293.417 128.276 300.625 124.51 308.677C122.464 313.057 119.224 316.786 115.146 319.453C103.677 326.948 88.2291 324.25 79.9843 313.302C75.6822 307.594 73.9218 300.568 75.0208 293.521C76.125 286.469 79.9375 280.323 85.7656 276.203C89.2864 273.714 93.401 272.125 97.6614 271.609C107.276 270.448 116.552 266.87 124.474 261.271L132.464 255.625C134.109 254.464 134.755 252.385 134.083 250.448C132.187 245.031 130.833 239.396 130.052 233.708C129.818 231.995 128.724 231.057 128.089 230.651C126.99 229.938 125.641 229.745 124.391 230.115C120.937 231.135 117.484 232.578 114.135 234.396C110.021 236.635 105.349 237.589 100.635 237.161C89.1666 236.12 79.9166 226.672 79.125 215.177C78.6614 208.505 80.9114 202.146 85.4531 197.281C89.9322 192.479 96.2708 189.724 102.833 189.724C106.922 189.724 110.953 190.781 114.495 192.786C118.703 195.167 123.427 196.865 128.526 197.823C130.672 198.229 132.797 196.969 133.469 194.891C135.75 187.865 138.932 181.141 142.932 174.896C144.016 173.208 143.755 170.911 142.312 169.443L131.245 158.156C125.13 151.917 117.818 147.458 110.099 145.266C105.427 143.937 101.292 141.245 98.1458 137.474C90.8072 128.672 91.026 114.542 98.6406 105.969C103.161 100.88 109.385 97.9844 116.161 97.8177C122.844 97.651 129.365 100.292 134.042 105.068C136.839 107.917 138.896 111.443 139.995 115.255C142.422 123.667 146.948 131.417 153.089 137.677L163.312 148.109C164.818 149.641 167.161 149.875 169.01 148.677C177.74 143.021 187.307 139.021 197.437 136.781C198.651 136.516 199.677 135.797 200.333 134.76C200.974 133.734 201.177 132.51 200.896 131.323C199.927 127.224 198.349 123.135 196.193 119.172C194.047 115.219 193.13 110.734 193.536 106.203C194.536 95.1875 203.615 86.3073 214.656 85.5417C221.062 85.1042 227.167 87.2604 231.844 91.625C236.458 95.9271 239.104 102.01 239.104 108.318C239.104 112.24 238.083 116.115 236.161 119.516C234.125 123.115 232.609 127.125 231.667 131.432C231.141 133.849 232.672 136.245 235.083 136.781C240.635 138 246.089 139.781 251.286 142.068C253.177 142.901 255.432 142.26 256.656 140.552L266.698 126.49C270.609 121.016 273.109 114.229 273.932 106.854C274.422 102.479 276.193 98.375 279.057 94.974C286.094 86.6354 298.401 84.6563 307.698 90.375C313.036 93.6563 316.656 98.8281 317.896 104.948C319.115 110.979 317.766 117.312 314.187 122.318C311.964 125.437 308.958 127.932 305.505 129.542C298.922 132.604 293.01 137.635 288.406 144.078L279.427 156.646C278.198 158.37 278.344 160.729 279.776 162.26C291.266 174.516 298.917 189.693 301.901 206.146C302.297 208.339 304.297 209.896 306.536 209.766C307.26 209.729 307.516 209.693 307.562 209.688C312.844 208.979 318.156 207.328 323.359 204.786C327.302 202.859 331.708 202.057 336.115 202.464C348.219 203.583 357.589 213.589 357.906 225.729C358.089 232.49 355.542 238.818 350.734 243.542C346 248.198 339.479 250.708 332.844 250.422C328.714 250.245 324.687 249 321.198 246.823C316.583 243.948 311.323 241.906 305.557 240.75C303.281 240.297 301.036 241.714 300.437 243.979C298.641 250.813 296 257.422 292.594 263.62C291.599 265.432 292.036 267.734 293.635 269.104L306.891 280.438C312.339 285.099 319.312 288.385 327.057 289.943C331.578 290.854 335.703 293.078 338.984 296.38C347.042 304.479 347.984 317.505 341.172 326.682C337.26 331.953 331.526 335.26 325.031 335.99C318.625 336.714 312.141 334.724 307.245 330.536C304.323 328.036 302.047 324.823 300.667 321.25C297.661 313.479 292.724 306.5 286.375 301.073L274.708 291.094C273.099 289.714 270.76 289.672 269.031 290.99C256.224 300.766 240.995 306.771 224.99 308.365C222.859 308.573 221.193 310.297 221.031 312.458C220.833 315.073 220.818 315.625 220.818 315.714C220.839 321.37 222.12 327.104 224.625 332.755C226.422 336.797 226.958 341.266 226.177 345.667C224.312 356.177 214.969 363.964 204.328 363.964ZM151.76 273.24C155.198 273.24 158.604 274.562 161.198 277.141C170.036 285.932 180.953 292.547 192.776 296.271C198.87 298.193 202.75 304.214 201.995 310.594C201.635 313.672 201.469 314.641 201.365 315.141C199.922 322.198 197.224 328.609 193.349 334.203C192.057 336.062 191.266 338.25 191.057 340.526C190.719 344.24 191.901 347.813 194.385 350.594C196.865 353.375 200.297 354.948 204.047 355.031C210.516 355.167 216.255 350.479 217.385 344.104C217.859 341.464 217.542 338.792 216.469 336.38C213.453 329.594 211.911 322.646 211.891 315.729C211.891 315.354 211.917 314.594 212.125 311.786C212.615 305.297 217.651 300.12 224.104 299.479C238.464 298.052 252.125 292.661 263.615 283.891C268.641 280.057 275.75 280.229 280.516 284.307L292.182 294.286C299.646 300.672 305.464 308.885 308.995 318.036C309.854 320.266 311.219 322.188 313.047 323.75C316.115 326.375 320.016 327.573 324.031 327.12C328.042 326.667 331.583 324.62 334.005 321.359C338.203 315.703 337.625 307.667 332.656 302.677C330.625 300.63 328.078 299.255 325.297 298.698C316.062 296.839 307.687 292.875 301.083 287.224L287.833 275.891C283.036 271.786 281.75 264.818 284.771 259.323C287.823 253.76 290.193 247.833 291.802 241.708C293.599 234.88 300.411 230.615 307.307 231.995C314.13 233.359 320.391 235.802 325.922 239.25C328.109 240.615 330.635 241.391 333.229 241.505C337.469 241.688 341.453 240.146 344.474 237.177C347.495 234.208 349.094 230.224 348.984 225.964C348.786 218.464 342.771 212.047 335.292 211.354C332.521 211.099 329.75 211.599 327.281 212.807C321.219 215.771 314.984 217.698 308.75 218.536C308.339 218.594 307.797 218.641 307.052 218.682C300.318 219.073 294.318 214.365 293.115 207.74C290.437 192.979 283.573 179.365 273.26 168.365C268.927 163.745 268.469 156.63 272.161 151.458L281.141 138.891C286.635 131.193 293.76 125.161 301.734 121.448C303.797 120.49 305.594 118.995 306.922 117.13C309.099 114.083 309.885 110.391 309.146 106.719C308.401 103.052 306.229 99.9479 303.021 97.9792C297.458 94.5573 290.094 95.7396 285.885 100.729C284.161 102.776 283.099 105.234 282.807 107.844C281.812 116.729 278.755 124.969 273.964 131.682L263.922 145.74C260.255 150.875 253.432 152.766 247.693 150.24C243.031 148.193 238.141 146.594 233.161 145.5C225.953 143.906 221.37 136.745 222.948 129.526C224.083 124.344 225.911 119.5 228.391 115.12C229.557 113.057 230.172 110.703 230.172 108.318C230.172 104.422 228.604 100.812 225.755 98.151C222.906 95.4948 219.182 94.1771 215.271 94.4479C208.557 94.9167 203.036 100.312 202.432 107.01C202.177 109.781 202.734 112.51 204.036 114.911C206.573 119.573 208.437 124.401 209.583 129.271C210.422 132.807 209.818 136.443 207.891 139.51C205.958 142.589 202.927 144.714 199.365 145.5C190.276 147.505 181.693 151.094 173.865 156.172C168.495 159.646 161.375 158.885 156.937 154.359L146.714 143.927C139.542 136.615 134.255 127.557 131.417 117.729C130.719 115.297 129.453 113.141 127.667 111.318C124.672 108.26 120.656 106.641 116.38 106.74C112.104 106.849 108.177 108.677 105.318 111.896C100.682 117.12 100.536 126.396 105.005 131.755C106.995 134.141 109.599 135.844 112.542 136.677C121.745 139.297 130.417 144.562 137.62 151.906L148.687 163.193C153.083 167.677 153.807 174.469 150.448 179.714C146.865 185.313 144.005 191.344 141.964 197.646C139.906 203.984 133.417 207.833 126.875 206.599C120.807 205.458 115.161 203.422 110.094 200.557C107.896 199.313 105.38 198.651 102.833 198.651C98.6718 198.651 94.8177 200.328 91.9791 203.37C89.1458 206.411 87.7395 210.385 88.0312 214.557C88.526 221.729 94.2916 227.62 101.437 228.271C104.396 228.536 107.312 227.943 109.875 226.552C113.771 224.432 117.807 222.75 121.859 221.552C125.609 220.443 129.646 221.026 132.932 223.146C136.198 225.255 138.37 228.661 138.896 232.49C139.599 237.594 140.812 242.646 142.51 247.505C144.479 253.151 142.469 259.484 137.62 262.917L129.63 268.562C120.5 275.01 109.812 279.13 98.7343 280.474C95.8958 280.818 93.2708 281.833 90.9166 283.495C87.0833 286.208 84.5677 290.255 83.8437 294.901C83.1197 299.542 84.2812 304.167 87.1145 307.932C92.5416 315.135 102.708 316.917 110.26 311.979C112.948 310.224 115.078 307.771 116.422 304.896C120.844 295.438 128.026 287.016 137.193 280.542L144.036 275.703C146.37 274.052 149.073 273.24 151.76 273.24Z" fill="white"/>
<path d="M235.229 222.76C218.776 222.76 205.391 209.375 205.391 192.922C205.391 176.469 218.776 163.083 235.229 163.083C251.682 163.083 265.073 176.469 265.073 192.922C265.073 209.375 251.682 222.76 235.229 222.76ZM235.229 172.016C223.703 172.016 214.323 181.396 214.323 192.922C214.323 204.453 223.703 213.833 235.229 213.833C246.76 213.833 256.141 204.453 256.141 192.922C256.141 181.396 246.76 172.016 235.229 172.016Z" fill="white"/>
<path d="M166.422 235.438C156.974 235.438 149.281 227.75 149.281 218.297C149.281 208.849 156.974 201.156 166.422 201.156C175.875 201.156 183.562 208.849 183.562 218.297C183.562 227.75 175.875 235.438 166.422 235.438ZM166.422 210.089C161.896 210.089 158.214 213.771 158.214 218.297C158.214 222.828 161.896 226.51 166.422 226.51C170.953 226.51 174.635 222.828 174.635 218.297C174.635 213.771 170.953 210.089 166.422 210.089Z" fill="white"/>
<path d="M216.312 280.172C206.859 280.172 199.172 272.479 199.172 263.031C199.172 253.578 206.859 245.891 216.312 245.891C225.766 245.891 233.453 253.578 233.453 263.031C233.453 272.479 225.766 280.172 216.312 280.172ZM216.312 254.818C211.786 254.818 208.099 258.5 208.099 263.031C208.099 267.557 211.786 271.24 216.312 271.24C220.839 271.24 224.526 267.557 224.526 263.031C224.526 258.5 220.839 254.818 216.312 254.818Z" fill="white"/>
</svg>
